<svg width="1500" height="500" viewBox="0 0 1500 500" fill="none" xmlns="http://www.w3.org/2000/svg">
  <defs>
    <linearGradient id="pcg" x1="90" y1="30" x2="1400" y2="470" gradientUnits="userSpaceOnUse">
      <stop offset="0" stop-color="#00FF88"/>
      <stop offset="1" stop-color="#00AA55"/>
    </linearGradient>
    <radialGradient id="bg" cx="0" cy="0" r="1" gradientUnits="userSpaceOnUse" gradientTransform="translate(750 250) rotate(90) scale(420 1100)">
      <stop stop-color="#141414"/>
      <stop offset="1" stop-color="#0A0A0A"/>
    </radialGradient>
  </defs>
  <rect width="1500" height="500" rx="28" fill="url(#bg)"/>
  <g opacity="0.4">
    <path d="M0 460L1500 460" stroke="#1D1D1D"/>
    <path d="M0 420L1500 420" stroke="#1D1D1D"/>
    <path d="M0 380L1500 380" stroke="#1D1D1D"/>
    <path d="M0 340L1500 340" stroke="#1D1D1D"/>
  </g>
  <g transform="translate(82,84)">
    <path d="M166 0L332 96V288L166 384L0 288V96L166 0Z" stroke="url(#pcg)" stroke-width="22"/>
    <path d="M166 98L246 144V240L166 286L86 240V144L166 98Z" stroke="url(#pcg)" stroke-width="18"/>
    <circle cx="166" cy="190" r="22" fill="url(#pcg)"/>
    <path d="M122 232L166 258L210 232" stroke="url(#pcg)" stroke-width="18" stroke-linecap="round"/>
  </g>
  <text x="470" y="230" fill="white" font-family="Inter,Segoe UI,Arial,sans-serif" font-size="108" font-weight="800" letter-spacing="8">PRIVCHAIN</text>
  <text x="472" y="302" fill="#B0B0B0" font-family="Inter,Segoe UI,Arial,sans-serif" font-size="36" font-weight="500" letter-spacing="1.6">x402-compatible privacy infrastructure for agent payments</text>
</svg>
